<?xml version="1.0" encoding="UTF-8" standalone="no"?>
<!-- Created with Inkscape (http://www.inkscape.org/) -->

<svg
   xmlns:dc="http://purl.org/dc/elements/1.1/"
   xmlns:cc="http://creativecommons.org/ns#"
   xmlns:rdf="http://www.w3.org/1999/02/22-rdf-syntax-ns#"
   xmlns:svg="http://www.w3.org/2000/svg"
   xmlns="http://www.w3.org/2000/svg"
   xmlns:sodipodi="http://sodipodi.sourceforge.net/DTD/sodipodi-0.dtd"
   xmlns:inkscape="http://www.inkscape.org/namespaces/inkscape"
   width="379.96155mm"
   height="98.654961mm"
   viewBox="0 0 379.96155 98.654961"
   version="1.1"
   id="svg8"
   inkscape:version="0.92.3 (2405546, 2018-03-11)"
   sodipodi:docname="LKLogo2.svg">
  <defs
     id="defs2" />
  <sodipodi:namedview
     id="base"
     pagecolor="#ffffff"
     bordercolor="#666666"
     borderopacity="1.0"
     inkscape:pageopacity="0.0"
     inkscape:pageshadow="2"
     inkscape:zoom="0.45254834"
     inkscape:cx="321.00598"
     inkscape:cy="212.56112"
     inkscape:document-units="mm"
     inkscape:current-layer="layer1"
     showgrid="false"
     inkscape:window-width="1800"
     inkscape:window-height="1106"
     inkscape:window-x="-11"
     inkscape:window-y="-11"
     inkscape:window-maximized="1"
     fit-margin-top="0"
     fit-margin-left="0"
     fit-margin-right="0"
     fit-margin-bottom="0" />
  <metadata
     id="metadata5">
    <rdf:RDF>
      <cc:Work
         rdf:about="">
        <dc:format>image/svg+xml</dc:format>
        <dc:type
           rdf:resource="http://purl.org/dc/dcmitype/StillImage" />
        <dc:title />
      </cc:Work>
    </rdf:RDF>
  </metadata>
  <g
     inkscape:label="Layer 1"
     inkscape:groupmode="layer"
     id="layer1"
     transform="translate(-19.284868,-68.496358)">
    <ellipse
       style="fill:none;stroke:#000000;stroke-width:5;stroke-linejoin:round;stroke-miterlimit:4;stroke-dasharray:none;stroke-opacity:1"
       id="path4537"
       cx="52.306446"
       cy="155.64043"
       rx="30.521578"
       ry="9.0108929" />
    <rect
       style="fill:none;stroke:#000000;stroke-width:5;stroke-linejoin:round;stroke-miterlimit:4;stroke-dasharray:none;stroke-opacity:1"
       id="rect4520"
       width="65.383911"
       height="8.4752989"
       x="83.327827"
       y="151.40285"
       ry="4.2376494" />
    <path
       style="fill:none;stroke:#000000;stroke-width:3;stroke-linecap:round;stroke-linejoin:miter;stroke-miterlimit:4;stroke-dasharray:none;stroke-opacity:1"
       d="M 22.216779,155.51419 39.464017,80.97105 52.764851,154.78338"
       id="path4541"
       inkscape:connector-curvature="0" />
    <rect
       style="fill:#000000;fill-opacity:1;stroke:#000000;stroke-width:3;stroke-linejoin:round;stroke-miterlimit:4;stroke-dasharray:none;stroke-opacity:1"
       id="rect4543"
       width="6.2850103"
       height="13.593155"
       x="35.80994"
       y="78.924774" />
    <path
       style="fill:none;stroke:#000000;stroke-width:5;stroke-linecap:round;stroke-linejoin:miter;stroke-miterlimit:4;stroke-dasharray:none;stroke-opacity:1"
       d="M 39.464017,80.971048 V 71.031964"
       id="path4547"
       inkscape:connector-curvature="0" />
    <g
       aria-label="ens"
       style="font-style:normal;font-variant:normal;font-weight:normal;font-stretch:normal;font-size:105.83333588px;line-height:1.25;font-family:sans-serif;-inkscape-font-specification:'sans-serif, Normal';font-variant-ligatures:normal;font-variant-caps:normal;font-variant-numeric:normal;font-feature-settings:normal;text-align:start;letter-spacing:0px;word-spacing:0px;writing-mode:lr-tb;text-anchor:start;fill:#000000;fill-opacity:1;stroke:none;stroke-width:0.26458332"
       id="text4551">
      <path
         d="M 136.16198,109.47935 H 93.632271 q 0,5.32267 1.60197,9.30176 1.601969,3.92741 4.392496,6.45955 2.687173,2.48047 6.356203,3.7207 3.7207,1.24024 8.16488,1.24024 5.89111,0 11.8339,-2.32544 5.99446,-2.37712 8.52661,-4.65088 h 0.51676 v 10.59367 q -4.90926,2.06706 -10.02522,3.46232 -5.11597,1.39526 -10.7487,1.39526 -14.36605,0 -22.427574,-7.75146 -8.061524,-7.80314 -8.061524,-22.11751 0,-14.159347 7.699789,-22.479253 7.751465,-8.319906 20.360519,-8.319906 11.67887,0 17.98339,6.821289 6.35621,6.82129 6.35621,19.37866 z m -9.45679,-7.44141 q -0.0517,-7.648109 -3.87573,-11.833901 -3.77238,-4.185791 -11.52385,-4.185791 -7.80314,0 -12.454019,4.599203 -4.599203,4.599202 -5.21932,11.420489 z"
         style="font-style:normal;font-variant:normal;font-weight:normal;font-stretch:normal;font-size:105.83333588px;font-family:sans-serif;-inkscape-font-specification:'sans-serif, Normal';font-variant-ligatures:normal;font-variant-caps:normal;font-variant-numeric:normal;font-feature-settings:normal;text-align:start;writing-mode:lr-tb;text-anchor:start;stroke-width:0.26458332"
         id="path828" />
      <path
         d="m 199.15555,137.33295 h -9.71517 v -32.86621 q 0,-3.97909 -0.46509,-7.441411 -0.46509,-3.513998 -1.70532,-5.477702 -1.29191,-2.170411 -3.7207,-3.203939 -2.4288,-1.085205 -6.30453,-1.085205 -3.97908,0 -8.3199,1.963704 -4.34082,1.963705 -8.31991,5.012614 v 43.098149 h -9.71517 V 79.610371 h 9.71517 v 6.407877 q 4.54753,-3.772379 9.40511,-5.891113 4.85759,-2.118734 9.97355,-2.118734 9.35344,0 14.2627,5.632731 4.90926,5.632732 4.90926,16.2264 z"
         style="font-style:normal;font-variant:normal;font-weight:normal;font-stretch:normal;font-size:105.83333588px;font-family:sans-serif;-inkscape-font-specification:'sans-serif, Normal';font-variant-ligatures:normal;font-variant-caps:normal;font-variant-numeric:normal;font-feature-settings:normal;text-align:start;writing-mode:lr-tb;text-anchor:start;stroke-width:0.26458332"
         id="path830" />
      <path
         d="m 259.10022,120.69314 q 0,7.90649 -6.56291,12.97078 -6.51123,5.06429 -17.82837,5.06429 -6.40788,0 -11.78223,-1.49862 -5.32267,-1.55029 -8.94002,-3.35896 V 122.9669 h 0.51677 q 4.5992,3.46232 10.23193,5.52938 5.63273,2.01538 10.80037,2.01538 6.40788,0 10.02523,-2.06706 3.61735,-2.06706 3.61735,-6.51123 0,-3.41065 -1.9637,-5.16764 -1.96371,-1.757 -7.54476,-2.99724 -2.06706,-0.46508 -5.42603,-1.0852 -3.30729,-0.62012 -6.04614,-1.34359 -7.59643,-2.01538 -10.80037,-5.89111 -3.15227,-3.92741 -3.15227,-9.611819 0,-3.565674 1.44694,-6.717937 1.49862,-3.152262 4.49585,-5.632731 2.89388,-2.428792 7.33806,-3.824056 4.49585,-1.44694 10.02523,-1.44694 5.16764,0 10.43864,1.291911 5.32267,1.240234 8.83667,3.048909 V 92.94289 h -0.51677 q -3.7207,-2.738851 -9.04337,-4.599202 -5.32268,-1.912028 -10.43864,-1.912028 -5.32268,0 -8.9917,2.067057 -3.66903,2.015381 -3.66903,6.046143 0,3.565674 2.22209,5.374349 2.17041,1.808671 7.02799,2.945561 2.68718,0.62011 5.99447,1.24023 3.35897,0.62012 5.58105,1.13688 6.76961,1.55029 10.43864,5.32267 3.66903,3.82406 3.66903,10.12859 z"
         style="font-style:normal;font-variant:normal;font-weight:normal;font-stretch:normal;font-size:105.83333588px;font-family:sans-serif;-inkscape-font-specification:'sans-serif, Normal';font-variant-ligatures:normal;font-variant-caps:normal;font-variant-numeric:normal;font-feature-settings:normal;text-align:start;writing-mode:lr-tb;text-anchor:start;stroke-width:0.26458332"
         id="path832" />
    </g>
    <g
       aria-label="Kit"
       style="font-style:normal;font-variant:normal;font-weight:normal;font-stretch:normal;font-size:105.83333588px;line-height:1.25;font-family:sans-serif;-inkscape-font-specification:'sans-serif, Normal';font-variant-ligatures:normal;font-variant-caps:normal;font-variant-numeric:normal;font-feature-settings:normal;text-align:start;letter-spacing:0px;word-spacing:0px;writing-mode:lr-tb;text-anchor:start;fill:#000000;fill-opacity:1;stroke:none;stroke-width:0.26458332"
       id="text4555">
      <path
         d="m 329.37987,153.7032 h -13.28084 l -30.43742,-34.26147 -7.64811,8.16487 v 26.0966 H 267.78157 V 76.756992 H 278.0135 V 116.90958 L 315.37556,76.756992 H 327.7779 L 293.41308,112.9305 Z"
         style="font-style:normal;font-variant:normal;font-weight:normal;font-stretch:normal;font-size:105.83333588px;font-family:sans-serif;-inkscape-font-specification:'sans-serif, Normal';font-variant-ligatures:normal;font-variant-caps:normal;font-variant-numeric:normal;font-feature-settings:normal;text-align:start;writing-mode:lr-tb;text-anchor:start;stroke-width:0.26458332"
         id="path821" />
      <path
         d="M 350.56722,86.317132 H 339.61181 V 76.240227 h 10.95541 z M 349.9471,153.7032 h -9.71517 V 95.980625 h 9.71517 z"
         style="font-style:normal;font-variant:normal;font-weight:normal;font-stretch:normal;font-size:105.83333588px;font-family:sans-serif;-inkscape-font-specification:'sans-serif, Normal';font-variant-ligatures:normal;font-variant-caps:normal;font-variant-numeric:normal;font-feature-settings:normal;text-align:start;writing-mode:lr-tb;text-anchor:start;stroke-width:0.26458332"
         id="path823" />
      <path
         d="m 399.24642,153.18644 q -2.73886,0.72347 -5.99447,1.18855 -3.20394,0.46509 -5.73609,0.46509 -8.83667,0 -13.43587,-4.75423 -4.5992,-4.75423 -4.5992,-15.24455 v -30.6958 h -6.56291 v -8.164875 h 6.56291 V 79.39249 h 9.71517 v 16.588135 h 20.05046 v 8.164875 h -20.05046 v 26.30331 q 0,4.54752 0.2067,7.13134 0.20671,2.53215 1.44694,4.75424 1.13689,2.06705 3.10059,3.04891 2.01538,0.93017 6.09782,0.93017 2.37712,0 4.96094,-0.67179 2.58382,-0.72347 3.7207,-1.18856 h 0.51677 z"
         style="font-style:normal;font-variant:normal;font-weight:normal;font-stretch:normal;font-size:105.83333588px;font-family:sans-serif;-inkscape-font-specification:'sans-serif, Normal';font-variant-ligatures:normal;font-variant-caps:normal;font-variant-numeric:normal;font-feature-settings:normal;text-align:start;writing-mode:lr-tb;text-anchor:start;stroke-width:0.26458332"
         id="path825" />
    </g>
  </g>
</svg>
