<?xml version="1.0" encoding="UTF-8" standalone="no"?>
<!-- Generator: Adobe Illustrator 15.1.0, SVG Export Plug-In . SVG Version: 6.00 Build 0)  -->

<svg
   xmlns:dc="http://purl.org/dc/elements/1.1/"
   xmlns:cc="http://creativecommons.org/ns#"
   xmlns:rdf="http://www.w3.org/1999/02/22-rdf-syntax-ns#"
   xmlns:svg="http://www.w3.org/2000/svg"
   xmlns="http://www.w3.org/2000/svg"
   xmlns:sodipodi="http://sodipodi.sourceforge.net/DTD/sodipodi-0.dtd"
   xmlns:inkscape="http://www.inkscape.org/namespaces/inkscape"
   version="1.1"
   id="Capa_1"
   x="0px"
   y="0px"
   width="64.913376"
   height="99.998825"
   viewBox="7.458 -0.001 64.913376 99.998825"
   enable-background="new 7.458 -0.001 85.084 100"
   xml:space="preserve"
   inkscape:version="0.48.3.1 r9886"
   sodipodi:docname="icon_1130.svg"><metadata
   id="metadata15"><rdf:RDF><cc:Work
       rdf:about=""><dc:format>image/svg+xml</dc:format><dc:type
         rdf:resource="http://purl.org/dc/dcmitype/StillImage" /></cc:Work></rdf:RDF></metadata><defs
   id="defs13" /><sodipodi:namedview
   pagecolor="#ffffff"
   bordercolor="#666666"
   borderopacity="1"
   objecttolerance="10"
   gridtolerance="10"
   guidetolerance="10"
   inkscape:pageopacity="0"
   inkscape:pageshadow="2"
   inkscape:window-width="1920"
   inkscape:window-height="1144"
   id="namedview11"
   showgrid="false"
   inkscape:zoom="2.36"
   inkscape:cx="23.218833"
   inkscape:cy="50"
   inkscape:window-x="0"
   inkscape:window-y="27"
   inkscape:window-maximized="1"
   inkscape:current-layer="Capa_1"
   fit-margin-top="0"
   fit-margin-left="0"
   fit-margin-right="0"
   fit-margin-bottom="0" />
<g
   id="g3"
   transform="translate(-20.170624,-0.00117688)">
	
	<path
   d="M 91.462,87.861 H 80.404 c 6.424,-6.938 9.941,-15.808 9.941,-25.229 0,-12.665 -6.265,-24.238 -16.812,-31.181 L 84.731,12.085 c 0.146,-0.25 0.184,-0.547 0.101,-0.834 -0.068,-0.273 -0.251,-0.507 -0.491,-0.658 l -0.898,-0.51 2.339,-4.091 C 86.086,5.479 85.906,4.817 85.38,4.521 L 77.808,0.147 c -0.254,-0.15 -0.538,-0.182 -0.82,-0.11 -0.274,0.074 -0.527,0.255 -0.664,0.507 L 73.967,4.62 72.988,4.042 C 72.737,3.896 72.431,3.859 72.158,3.928 71.869,4.013 71.632,4.187 71.492,4.438 L 42.7,54.303 c -0.306,0.513 -0.11,1.185 0.4,1.481 l 1.573,0.905 -3.031,5.236 c -0.136,0.254 -0.172,0.55 -0.099,0.828 0.064,0.273 0.246,0.516 0.501,0.661 l 6.333,3.653 c 0.246,0.141 0.547,0.188 0.82,0.105 0.283,-0.073 0.51,-0.26 0.657,-0.507 l 3.019,-5.233 1.583,0.905 c 0.253,0.14 0.547,0.188 0.821,0.109 0.273,-0.075 0.525,-0.264 0.665,-0.514 L 67.472,41.98 c 6.751,4.729 10.737,12.369 10.737,20.652 0,13.912 -11.321,25.229 -25.253,25.229 h -21.2 c -0.616,0 -1.103,0.488 -1.103,1.09 v 9.969 c 0,0.592 0.487,1.079 1.103,1.079 h 59.706 c 0.605,0 1.08,-0.487 1.08,-1.079 v -9.969 c 0,-0.601 -0.475,-1.09 -1.08,-1.09 z"
   id="path7"
   inkscape:connector-curvature="0" />
	<path
   d="m 52.997,82.049 c 0.39,0 0.754,-0.191 0.954,-0.539 l 2.401,-4.179 C 56.483,77.098 56.538,76.8 56.454,76.515 56.398,76.238 56.21,76.002 55.953,75.86 L 31.666,61.82 c -0.511,-0.296 -1.185,-0.114 -1.481,0.405 l -2.414,4.163 c -0.136,0.254 -0.183,0.558 -0.104,0.83 0.08,0.273 0.262,0.515 0.513,0.656 l 24.283,14.037 c 0.182,0.092 0.364,0.138 0.534,0.138 z"
   id="path9"
   inkscape:connector-curvature="0" />
</g>
</svg>